<svg width="51" height="54" fill="none" xmlns="http://www.w3.org/2000/svg"><path clip-rule="evenodd" d="M30.723 21.798a7.252 7.252 0 0 1 0 10.242 7.218 7.218 0 0 1-10.222 0 7.252 7.252 0 0 1 0-10.242 7.218 7.218 0 0 1 10.222 0Z" stroke="url(#a)" stroke-width="4" stroke-linecap="round" stroke-linejoin="round"/><path clip-rule="evenodd" d="M7.542 26.92c0 .796.072 1.593.169 2.365l-4.252 3.332a2.411 2.411 0 0 0-.6 3.1l3.78 6.553a2.401 2.401 0 0 0 2.978 1.03l3.806-1.531c.753-.303 1.59-.183 2.265.265.59.392 1.2.751 1.831 1.073.723.367 1.248 1.025 1.363 1.83l.58 4.058a2.403 2.403 0 0 0 2.378 2.065h7.541c1.194 0 2.21-.88 2.378-2.066l.58-4.055c.116-.805.646-1.467 1.371-1.832.63-.316 1.237-.673 1.823-1.062.68-.45 1.521-.58 2.276-.274l3.799 1.53a2.403 2.403 0 0 0 2.977-1.03l3.78-6.553a2.41 2.41 0 0 0-.6-3.101l-4.251-3.331c.096-.773.168-1.57.168-2.366 0-.797-.072-1.594-.168-2.366l4.25-3.331a2.41 2.41 0 0 0 .6-3.1l-3.78-6.554a2.401 2.401 0 0 0-2.976-1.03l-3.8 1.53c-.754.302-1.595.176-2.275-.274a17.66 17.66 0 0 0-1.823-1.062c-.725-.365-1.255-1.028-1.37-1.832l-.579-4.056a2.403 2.403 0 0 0-2.377-2.065h-7.541c-1.194 0-2.209.88-2.377 2.065l-.584 4.061c-.115.802-.643 1.462-1.363 1.83-.631.321-1.242.683-1.83 1.072-.678.445-1.516.566-2.268.263L9.617 10.54a2.401 2.401 0 0 0-2.977 1.03l-3.78 6.552a2.41 2.41 0 0 0 .6 3.1l4.25 3.332a19.18 19.18 0 0 0-.168 2.366Z" stroke="url(#b)" stroke-width="4" stroke-linecap="round" stroke-linejoin="round"/><defs><linearGradient id="a" x1="2.537" y1="27.393" x2="48.687" y2="27.393" gradientUnits="userSpaceOnUse"><stop stop-color="#5EA9FF"/><stop offset="1" stop-color="#D5D3FF"/></linearGradient><linearGradient id="b" x1="2.537" y1="27.393" x2="48.687" y2="27.393" gradientUnits="userSpaceOnUse"><stop stop-color="#5EA9FF"/><stop offset="1" stop-color="#D5D3FF"/></linearGradient></defs></svg>