<svg width="114" height="114" fill="none" xmlns="http://www.w3.org/2000/svg"><path d="M57.219 1.077c-30.655 0-55.483 24.827-55.483 55.482 0 30.654 24.828 55.482 55.483 55.482 30.654 0 55.482-24.828 55.482-55.482 0-30.655-24.86-55.482-55.482-55.482Z" fill="#fff" fill-opacity=".9" stroke="url(#a)" stroke-width="2"/><path fill-rule="evenodd" clip-rule="evenodd" d="M26.736 32.224a2.61 2.61 0 0 1 2.611-2.61h5.981a2.61 2.61 0 0 1 2.549 2.043l1.613 7.258h37.152c3.64 0 6.344 3.354 5.586 6.907L77.57 67.528a5.71 5.71 0 0 1-5.585 4.513H45.888a5.71 5.71 0 0 1-5.582-4.512l-5.46-25.446-1.612-7.248h-3.887a2.61 2.61 0 0 1-2.61-2.61Zm13.89 11.913 4.786 22.295a.488.488 0 0 0 .476.387h26.097a.49.49 0 0 0 .48-.386m0 0 4.656-21.7v-.002a.49.49 0 0 0-.479-.594H40.627m1.953 37.701a3.765 3.765 0 0 1 3.767-3.78 3.775 3.775 0 1 1 .003 7.547 3.77 3.77 0 0 1-3.77-3.767Zm26.692.006a3.765 3.765 0 0 1 3.767-3.786 3.78 3.78 0 0 1 3.78 3.761v.013a3.774 3.774 0 0 1-7.547.012Z" fill="url(#b)"/><defs><linearGradient id="a" x1="1.736" y1="57.647" x2="112.701" y2="57.647" gradientUnits="userSpaceOnUse"><stop stop-color="#5EA9FF"/><stop offset="1" stop-color="#D5D3FF"/></linearGradient><linearGradient id="b" x1="26.736" y1="58.158" x2="82.356" y2="58.158" gradientUnits="userSpaceOnUse"><stop stop-color="#5EA9FF"/><stop offset="1" stop-color="#D5D3FF"/></linearGradient></defs></svg>