<svg width="71" height="71" fill="none" xmlns="http://www.w3.org/2000/svg"><path d="M35.346.996C16.37.996 1 16.366 1 35.342 1 54.32 16.37 69.69 35.346 69.69c18.977 0 34.346-15.37 34.346-34.347 0-18.976-15.39-34.346-34.346-34.346Z" fill="#fff" fill-opacity=".9" stroke="url(#a)" stroke-width="1.5"/><path d="M52.737 46.41v-1.733a3.952 3.952 0 0 0-3.952-3.953h-1.267M17.955 46.41v-1.733a3.952 3.952 0 0 1 3.953-3.953h1.266m20.613 5.686v-2.531a5.534 5.534 0 0 0-5.533-5.534h-5.817a5.534 5.534 0 0 0-5.533 5.534v2.53m22.343-14.981a3.198 3.198 0 1 1-4.523 4.523 3.198 3.198 0 0 1 4.523-4.523Zm-10.418-5.71a4.925 4.925 0 1 1-6.965 6.965 4.925 4.925 0 0 1 6.965-6.965Zm-12.86 5.71a3.198 3.198 0 1 1-4.524 4.523 3.198 3.198 0 0 1 4.523-4.523Z" stroke="url(#b)" stroke-width="3" stroke-linecap="round" stroke-linejoin="round"/><defs><linearGradient id="a" x1="1" y1="36.016" x2="69.692" y2="36.016" gradientUnits="userSpaceOnUse"><stop stop-color="#5EA9FF"/><stop offset="1" stop-color="#D5D3FF"/></linearGradient><linearGradient id="b" x1="17.955" y1="35.56" x2="52.737" y2="35.56" gradientUnits="userSpaceOnUse"><stop stop-color="#5EA9FF"/><stop offset="1" stop-color="#D5D3FF"/></linearGradient></defs></svg>