<svg width="106" height="130" fill="none" xmlns="http://www.w3.org/2000/svg"><g filter="url(#a)"><path d="M27.823 28.57c0-3.357-2.005-4.565-4.372-4.565-2.343 0-4.371 1.377-4.371 4.565 0 3.188 1.763 4.637 4.371 4.637 2.609 0 4.372-1.449 4.372-4.637Zm-3.285 0c0 1.377-.338 2.174-1.087 2.174-.845 0-1.11-.797-1.11-2.174 0-1.45.265-2.125 1.11-2.125.725 0 1.087.7 1.087 2.125Zm3.14 8.671v-3.357H19.2v3.357h8.478Zm-9.685 4.565V24.295h-3.986v12.076L6.98 24.295H1.955v17.51H5.94V29.73l7.029 12.077h5.024Z" fill="#fff"/></g><g filter="url(#b)"><path d="M82.925 107.296V9.837H66.122c-4.302 10.62-11.023 15.325-27.423 15.728v16.266h22.18v65.465h22.046Z" fill="#fff"/></g><defs><filter id="a" x=".37" y="17.136" width="41.719" height="33.653" filterUnits="userSpaceOnUse" color-interpolation-filters="sRGB"><feFlood flood-opacity="0" result="BackgroundImageFix"/><feColorMatrix in="SourceAlpha" values="0 0 0 0 0 0 0 0 0 0 0 0 0 0 0 0 0 0 127 0" result="hardAlpha"/><feOffset dx="6.341" dy="1.057"/><feGaussianBlur stdDeviation="3.963"/><feComposite in2="hardAlpha" operator="out"/><feColorMatrix values="0 0 0 0 0.0235294 0 0 0 0 0.0705882 0 0 0 0 0.121569 0 0 0 0.2 0"/><feBlend in2="BackgroundImageFix" result="effect1_dropShadow_1725_19899"/><feBlend in="SourceGraphic" in2="effect1_dropShadow_1725_19899" result="shape"/></filter><filter id="b" x="29.188" y=".326" width="75.931" height="129.163" filterUnits="userSpaceOnUse" color-interpolation-filters="sRGB"><feFlood flood-opacity="0" result="BackgroundImageFix"/><feColorMatrix in="SourceAlpha" values="0 0 0 0 0 0 0 0 0 0 0 0 0 0 0 0 0 0 127 0" result="hardAlpha"/><feOffset dx="6.341" dy="6.341"/><feGaussianBlur stdDeviation="7.926"/><feComposite in2="hardAlpha" operator="out"/><feColorMatrix values="0 0 0 0 0.0246701 0 0 0 0 0.0694194 0 0 0 0 0.120833 0 0 0 0.2 0"/><feBlend in2="BackgroundImageFix" result="effect1_dropShadow_1725_19899"/><feBlend in="SourceGraphic" in2="effect1_dropShadow_1725_19899" result="shape"/></filter></defs></svg>