<svg width="219" height="168" fill="none" xmlns="http://www.w3.org/2000/svg"><path d="M1.695 64.6v1.55c0 8.005 2.529 16.943 6.509 26.073 3.985 9.142 9.455 18.546 15.408 27.501 11.906 17.912 25.8 34.113 33.775 42.964a9.829 9.829 0 0 0 14.64 0c7.975-8.851 21.869-25.052 33.775-42.964 5.953-8.955 11.423-18.359 15.408-27.5 3.98-9.131 6.509-18.069 6.509-26.074V64.6c0-34.802-28.21-63.012-63.012-63.012S1.695 29.798 1.695 64.6Z" fill="url(#a)" fill-opacity=".9" stroke="url(#b)" stroke-width="2.114" stroke-linecap="round" stroke-linejoin="round"/><g filter="url(#c)" fill-rule="evenodd" clip-rule="evenodd" fill="#fff"><path d="M145.025 39.326c6.467 0 12.479 1.185 18.218 3.464 5.739 2.462 10.567 5.653 14.758 9.664 4.19 4.102 7.56 8.934 9.929 14.405 2.459 5.47 3.552 11.487 3.552 17.777 0 6.29-1.184 12.217-3.552 17.778-2.46 5.47-5.739 10.302-9.929 14.404-4.191 4.103-9.019 7.294-14.758 9.573-5.739 2.461-11.751 3.555-18.218 3.555h-34.707v-90.62h34.707Zm11.477 71.294c3.462-1.368 6.377-3.465 8.836-6.017 2.46-2.553 4.191-5.653 5.648-9.026 1.367-3.464 2.004-7.02 2.004-10.94s-.637-7.658-2.004-11.122c-1.366-3.465-3.188-6.382-5.648-8.935-2.459-2.553-5.374-4.558-8.836-6.108a31 31 0 0 0-11.477-2.188H128.81v56.615h16.215c4.19 0 8.016-.729 11.477-2.279ZM65.32 37.783c-15.304 0-27.693 12.399-27.693 27.715s12.389 27.715 27.692 27.715c15.304 0 27.692-12.399 27.692-27.715-.09-15.316-12.48-27.715-27.692-27.715Zm0 39.018c-6.286 0-11.387-5.105-11.387-11.396 0-6.29 5.101-11.396 11.387-11.396 6.285 0 11.386 5.105 11.386 11.396-.091 6.29-5.192 11.396-11.386 11.396Z"/></g><defs><linearGradient id="a" x1="10.282" y1="29.461" x2="64.575" y2="117.836" gradientUnits="userSpaceOnUse"><stop stop-color="#D5D3FF"/><stop offset="1" stop-color="#fff"/></linearGradient><linearGradient id="b" x1="143.043" y1="100.399" x2="52.157" y2="125.234" gradientUnits="userSpaceOnUse"><stop stop-color="#fff"/><stop offset="1" stop-color="#fff" stop-opacity="0"/></linearGradient><filter id="c" x="22.832" y="22.988" width="196.128" height="134.436" filterUnits="userSpaceOnUse" color-interpolation-filters="sRGB"><feFlood flood-opacity="0" result="BackgroundImageFix"/><feColorMatrix in="SourceAlpha" values="0 0 0 0 0 0 0 0 0 0 0 0 0 0 0 0 0 0 127 0" result="hardAlpha"/><feOffset dx="6.341" dy="6.341"/><feGaussianBlur stdDeviation="10.568"/><feComposite in2="hardAlpha" operator="out"/><feColorMatrix values="0 0 0 0 0.111337 0 0 0 0 0.294332 0 0 0 0 0.504167 0 0 0 0.2 0"/><feBlend in2="BackgroundImageFix" result="effect1_dropShadow_1725_19898"/><feBlend in="SourceGraphic" in2="effect1_dropShadow_1725_19898" result="shape"/></filter></defs></svg>