<svg width="71" height="72" fill="none" xmlns="http://www.w3.org/2000/svg"><path d="M35.346 1.568C16.37 1.568 1 16.938 1 35.914 1 54.891 16.37 70.26 35.346 70.26c18.977 0 34.346-15.37 34.346-34.346S54.302 1.568 35.346 1.568Z" fill="#fff" fill-opacity=".9" stroke="url(#a)" stroke-width="1.5"/><path d="M31.041 29.19h-5.08M19.19 46.968v-22.01a4.233 4.233 0 0 1 4.232-4.233h.847c.935 0 1.693.758 1.693 1.693v18.624c0 .935-.758 1.693-1.693 1.693h-.847a4.233 4.233 0 0 0-4.233 4.233Zm0 0a4.233 4.233 0 0 0 4.232 4.233H46.28a3.386 3.386 0 0 0 3.387-3.386V34.27m-10.583 2.85-3.69.527a.843.843 0 0 1-.958-.95l.528-3.698c.104-.725.44-1.397.958-1.915l9.308-9.308a3.59 3.59 0 1 1 5.077 5.078l-9.308 9.308a3.386 3.386 0 0 1-1.915.958Z" stroke="url(#b)" stroke-width="3" stroke-linecap="round" stroke-linejoin="round"/><defs><linearGradient id="a" x1="1" y1="36.588" x2="69.692" y2="36.588" gradientUnits="userSpaceOnUse"><stop stop-color="#5EA9FF"/><stop offset="1" stop-color="#D5D3FF"/></linearGradient><linearGradient id="b" x1="19.189" y1="36.261" x2="51.358" y2="36.261" gradientUnits="userSpaceOnUse"><stop stop-color="#5EA9FF"/><stop offset="1" stop-color="#D5D3FF"/></linearGradient></defs></svg>