<svg width="32" height="32" fill="none" xmlns="http://www.w3.org/2000/svg"><path fill-rule="evenodd" clip-rule="evenodd" d="M21.942 7.3c1.261 0 2.433.231 3.552.676a9.504 9.504 0 0 1 2.878 1.884 8.823 8.823 0 0 1 1.936 2.809c.48 1.066.692 2.24.692 3.466 0 1.227-.23 2.382-.692 3.466a9.12 9.12 0 0 1-1.936 2.81 8.563 8.563 0 0 1-2.878 1.866c-1.119.48-2.29.693-3.552.693h-6.767V7.3h6.767Zm2.238 13.902a4.87 4.87 0 0 0 1.722-1.173c.48-.498.817-1.102 1.102-1.76a5.69 5.69 0 0 0 .39-2.133c0-.764-.124-1.493-.39-2.169a5.198 5.198 0 0 0-1.102-1.742 5.428 5.428 0 0 0-1.723-1.19 6.047 6.047 0 0 0-2.237-.428H18.78v11.04h3.162c.817 0 1.563-.143 2.238-.445ZM6.4 7A5.4 5.4 0 0 0 1 12.404a5.4 5.4 0 1 0 10.8 0C11.78 9.418 9.365 7 6.4 7Zm0 7.608a2.222 2.222 0 0 1 0-4.444c1.226 0 2.22.995 2.22 2.222-.018 1.226-1.012 2.222-2.22 2.222Z" fill="#fff"/></svg>