<svg width="326" height="40" fill="none" xmlns="http://www.w3.org/2000/svg"><path fill-rule="evenodd" clip-rule="evenodd" d="M36.947 4.93a16.107 16.107 0 0 1 11.395 4.487 15.558 15.558 0 0 1 3.427 4.928 14.615 14.615 0 0 1 1.23 6.08 15.212 15.212 0 0 1-1.23 6.087 16.212 16.212 0 0 1-3.427 4.928 15.227 15.227 0 0 1-5.102 3.27 15.829 15.829 0 0 1-6.293 1.217H25V4.93h11.947Zm3.96 24.392a8.535 8.535 0 0 0 3.059-2.052 10.035 10.035 0 0 0 1.936-3.097 9.81 9.81 0 0 0 .697-3.74 10.19 10.19 0 0 0-.697-3.834 8.914 8.914 0 0 0-1.936-3.059 9.587 9.587 0 0 0-3.06-2.09 10.743 10.743 0 0 0-3.96-.748h-5.605v19.406h5.606a9.539 9.539 0 0 0 3.96-.787Z" fill="#151515"/><path d="M95 4.964v31h-6v-31h6Zm29.603 18.37c-.949 3.55-3.464 6.572-8.456 6.572-6.539 0-8.627-5.127-8.627-9.91 0-4.784 2.098-9.902 8.608-9.902 4.992 0 7.526 2.994 8.456 6.572H131C129.738 9.07 124.176 4 116.375 4 107.482 4 101 10.563 101 19.995 101 29.428 107.454 36 116.375 36c7.801 0 13.363-5.042 14.625-12.637h-6.397v-.03ZM176 5v31h-6V5h6Zm-33.805 0v12.626h13.61V5H162v31h-6.195V23.134h-13.61V36H136V5h6.195Z" fill="#151515"/><path fill-rule="evenodd" clip-rule="evenodd" d="M9.5 4a9.5 9.5 0 1 0 9.5 9.5A9.49 9.49 0 0 0 9.5 4Zm0 13.371a3.91 3.91 0 1 1 .01 0H9.5ZM78.273 36H85L74.43 5h-9.744L54 36h6.727l2.085-6.37h13.367L78.272 36ZM64.618 24.199l4.91-14.833 4.873 14.833h-9.783Z" fill="#151515"/><rect x="198.857" width="127" height="40" rx="8" fill="#2858FF"/><path d="M222.615 29.648c4.594 0 7.531-1.708 7.531-6.233 0-4.445-2.964-5.908-7.344-5.908h-4.887v-4.363h10.495V10h-14.314v19.648h8.519Zm-4.7-8.998h4.807c2.27 0 3.525.813 3.525 2.873 0 1.951-1.228 2.981-3.472 2.981h-4.86V20.65Zm18.561 8.998 6.329-9.594v9.594h3.606v-14.58h-3.686l-6.329 9.946v-9.946h-3.606v14.58h3.686ZM255.77 30c3.738 0 6.543-1.463 6.543-4.715 0-1.925-.935-2.927-2.537-3.388 1.362-.623 2.056-1.626 2.056-3.008 0-2.954-2.671-4.228-5.956-4.228-3.178 0-6.142 1.653-6.649 5.285h3.551c.187-1.626 1.282-2.575 2.885-2.575 1.709 0 2.564.84 2.564 1.897 0 1.084-.935 1.626-2.297 1.626h-1.976v2.575h2.136c1.683 0 2.644.515 2.644 1.897 0 1.192-1.068 1.924-2.858 1.924-2.029 0-3.151-1.057-3.338-2.575h-3.552c.561 3.903 3.499 5.285 6.784 5.285Zm13.15-.352v-5.99h5.982v5.99h3.686v-14.58h-3.686v5.637h-5.982v-5.637h-3.685v14.58h3.685Zm26.485-6.261c.133-5.149-2.618-8.645-7.051-8.645-4.246 0-7.211 3.226-7.211 7.561 0 4.201 2.698 7.697 7.318 7.697 3.926 0 6.009-2.412 6.783-4.58h-3.792c-.748 1.274-1.869 1.68-3.018 1.68-1.762 0-3.418-1.22-3.632-3.713h10.603Zm-7.078-5.907c1.549 0 3.259.867 3.339 3.333h-6.81c.293-2.466 2.083-3.333 3.471-3.333Zm16.119-2.738c-4.3 0-7.211 3.198-7.211 7.643 0 4.417 2.751 7.615 7.051 7.615 2.991 0 5.955-1.328 6.81-5.312h-3.526c-.507 1.735-1.816 2.412-3.097 2.412-2.03 0-3.472-1.707-3.472-4.77 0-3.035 1.522-4.688 3.445-4.688 1.415 0 2.697 1.003 2.991 2.412h3.525c-.507-3.604-3.498-5.311-6.516-5.311Z" fill="#fff"/></svg>