<svg width="155" height="28" fill="none" xmlns="http://www.w3.org/2000/svg"><path fill-rule="evenodd" clip-rule="evenodd" d="M32.085.461c1.932 0 3.728.354 5.443 1.035 1.715.735 3.157 1.689 4.409 2.887a13.52 13.52 0 0 1 2.966 4.304c.735 1.634 1.062 3.432 1.062 5.311 0 1.88-.354 3.65-1.062 5.311-.734 1.634-1.714 3.078-2.966 4.304a13.118 13.118 0 0 1-4.409 2.86c-1.715.735-3.51 1.062-5.443 1.062H21.716V.46h10.369Zm3.43 21.3c1.034-.409 1.905-1.035 2.64-1.798.734-.762 1.251-1.689 1.687-2.696.408-1.035.599-2.098.599-3.269 0-1.171-.191-2.288-.6-3.323-.407-1.035-.952-1.906-1.687-2.669-.734-.763-1.605-1.362-2.64-1.825a9.264 9.264 0 0 0-3.428-.654H27.24v16.915h4.845c1.251 0 2.394-.218 3.429-.681Z" fill="#151515"/><path d="M83.905.46v27.048H78.38V.46h5.525Zm25.744 16.454c-.816 3.105-3.048 5.747-7.457 5.747-5.769 0-7.593-4.466-7.593-8.661 0-4.195 1.851-8.661 7.593-8.661 4.409 0 6.641 2.614 7.457 5.747h5.661C114.194 4.44 109.295 0 102.41 0c-7.838 0-13.553 5.747-13.553 14 0 8.226 5.688 14 13.553 14 6.885 0 11.784-4.413 12.9-11.058h-5.661v-.028ZM154.825.46v27.048h-5.524V.46h5.524Zm-29.364 0v10.978h12.137V.46h5.552v27.047h-5.524V16.286h-12.165v11.222h-5.525V.46h5.525Z" fill="#151515"/><path fill-rule="evenodd" clip-rule="evenodd" d="M8.273 0A8.273 8.273 0 0 0 0 8.28a8.273 8.273 0 0 0 8.273 8.28 8.273 8.273 0 0 0 8.274-8.28C16.52 3.704 12.818 0 8.273 0Zm0 11.657a3.405 3.405 0 0 1 0-6.81 3.405 3.405 0 0 1 3.402 3.405c-.027 1.88-1.55 3.405-3.401 3.405Zm59.982 15.851h5.851L64.907.46h-8.491L47.11 27.508h5.851l1.823-5.557h11.649l1.823 5.557ZM56.362 17.21l4.273-12.938 4.246 12.938h-8.519Z" fill="#151515"/></svg>