<svg width="57" height="56" fill="none" xmlns="http://www.w3.org/2000/svg"><g filter="url(#a)"><rect x=".5" width="56" height="56" rx="28" fill="#000" fill-opacity=".05"/><path d="M40.5 23.17c-6.999-5.56-17.001-5.56-24 0m5.002 7.114c4.082-3.241 9.916-3.241 13.998 0m-7 6.698a.5.5 0 0 0-.498.51.503.503 0 0 0 .5.508c.275 0 .5-.228.5-.509a.505.505 0 0 0-.502-.509Z" stroke="url(#b)" stroke-width="2" stroke-linecap="round" stroke-linejoin="round"/><rect x="1.5" y="1" width="54" height="54" rx="27" stroke="url(#c)" stroke-width="2"/></g><defs><linearGradient id="b" x1="16.5" y1="28.686" x2="40.5" y2="28.686" gradientUnits="userSpaceOnUse"><stop stop-color="#3593FF"/><stop offset="1" stop-color="#EB91FA"/></linearGradient><linearGradient id="c" x1=".5" y1="28.549" x2="56.5" y2="28.549" gradientUnits="userSpaceOnUse"><stop stop-color="#3593FF"/><stop offset="1" stop-color="#EB91FA"/></linearGradient><filter id="a" x="-29.5" y="-30" width="116" height="116" filterUnits="userSpaceOnUse" color-interpolation-filters="sRGB"><feFlood flood-opacity="0" result="BackgroundImageFix"/><feGaussianBlur in="BackgroundImageFix" stdDeviation="15"/><feComposite in2="SourceAlpha" operator="in" result="effect1_backgroundBlur_477_6051"/><feBlend in="SourceGraphic" in2="effect1_backgroundBlur_477_6051" result="shape"/></filter></defs></svg>