<svg width="56" height="56" fill="none" xmlns="http://www.w3.org/2000/svg"><g filter="url(#a)"><rect width="56" height="56" rx="28" fill="#000" fill-opacity=".05"/><path d="M33.413 38.04h2.333m-3.913-12.665c-1.381 0-2.5 1.104-2.5 2.467m1.167-6.579c-2.945 0-5.333 2.357-5.333 5.263M36 25.211h1.333c1.474 0 2.667 1.177 2.667 2.631v10.526C40 39.822 38.807 41 37.333 41h-5.5c-1.473 0-2.666-1.178-2.666-2.632V31.79m-4.568 2.632-.52 4.092m-1.412 0h6.5m8.166-18.566v-1.315c0-1.454-1.193-2.632-2.667-2.632h-16C17.194 16 16 17.178 16 18.632v13.157c0 1.454 1.193 2.632 2.667 2.632h10.5" stroke="url(#b)" stroke-width="2" stroke-linecap="round" stroke-linejoin="round"/><rect x="1" y="1" width="54" height="54" rx="27" stroke="url(#c)" stroke-width="2"/></g><defs><linearGradient id="b" x1="16" y1="28.745" x2="40" y2="28.745" gradientUnits="userSpaceOnUse"><stop stop-color="#3593FF"/><stop offset="1" stop-color="#EB91FA"/></linearGradient><linearGradient id="c" x1="0" y1="28.549" x2="56" y2="28.549" gradientUnits="userSpaceOnUse"><stop stop-color="#3593FF"/><stop offset="1" stop-color="#EB91FA"/></linearGradient><filter id="a" x="-30" y="-30" width="116" height="116" filterUnits="userSpaceOnUse" color-interpolation-filters="sRGB"><feFlood flood-opacity="0" result="BackgroundImageFix"/><feGaussianBlur in="BackgroundImageFix" stdDeviation="15"/><feComposite in2="SourceAlpha" operator="in" result="effect1_backgroundBlur_480_6436"/><feBlend in="SourceGraphic" in2="effect1_backgroundBlur_480_6436" result="shape"/></filter></defs></svg>