<svg width="57" height="56" fill="none" xmlns="http://www.w3.org/2000/svg"><g filter="url(#a)"><rect x=".5" width="56" height="56" rx="28" fill="#000" fill-opacity=".05"/><path d="M35.75 37.205c-3.838-2.966-9.324-2.966-13.163 0M25.33 41c2.239-1.728 5.438-1.728 7.678 0M37.1 21.01h-2.7m2.7 9.357V29.03c0-1.477-1.209-2.673-2.7-2.673H23.6c-1.492 0-2.7 1.196-2.7 2.673v1.337m17.55 0h-18.9c-2.237 0-4.05-1.796-4.05-4.01V21.01c0-2.215 1.813-4.01 4.05-4.01h18.9c2.237 0 4.05 1.795 4.05 4.01v5.347c0 2.215-1.813 4.01-4.05 4.01Z" stroke="url(#b)" stroke-width="2" stroke-linecap="round" stroke-linejoin="round"/><rect x="1.5" y="1" width="54" height="54" rx="27" stroke="url(#c)" stroke-width="2"/></g><defs><linearGradient id="b" x1="15.5" y1="29.235" x2="42.5" y2="29.235" gradientUnits="userSpaceOnUse"><stop stop-color="#3593FF"/><stop offset="1" stop-color="#EB91FA"/></linearGradient><linearGradient id="c" x1=".5" y1="28.549" x2="56.5" y2="28.549" gradientUnits="userSpaceOnUse"><stop stop-color="#3593FF"/><stop offset="1" stop-color="#EB91FA"/></linearGradient><filter id="a" x="-29.5" y="-30" width="116" height="116" filterUnits="userSpaceOnUse" color-interpolation-filters="sRGB"><feFlood flood-opacity="0" result="BackgroundImageFix"/><feGaussianBlur in="BackgroundImageFix" stdDeviation="15"/><feComposite in2="SourceAlpha" operator="in" result="effect1_backgroundBlur_477_6041"/><feBlend in="SourceGraphic" in2="effect1_backgroundBlur_477_6041" result="shape"/></filter></defs></svg>