<svg width="1200" height="688" fill="none" xmlns="http://www.w3.org/2000/svg"><mask id="b" style="mask-type:alpha" maskUnits="userSpaceOnUse" x="0" y="0" width="1200" height="688"><path fill="#fff" d="M0 0h1200v688H0z"/></mask><g filter="url(#a)" mask="url(#b)"><path d="M0 0v688.235h1200.88V0H0Zm1146.48 396.21c.54.411.18 1.422.54 2.022.28.459 1.32.846 1.45 1.454.26 1.114-1.65 2.149-2.42 2.488-2.77 1.256-1.69-.363-2.63-1.801-.25-.379-1.63-1.469-1.6-1.516.23-.38.91-.253 1.31-.348 1.02-.253-.4-1.493 1.39-2.085l.01-.016c.44.016 1.36-.624 1.95-.206v.008Zm-4.54-7.299c.51.048.19.909.97.909 3.3 0 3.2 3.136 1.61 4.155-1.65 1.05-4.86-.063-4.38-3.239.03-.174-.59-.703-.62-1.114-.03-.347.23-2.054.06-2.291-.91-1.272-3.23-1.706-1.52-3.886 1-1.272 2.3.332 2.71 1.516.53 1.612-1.06 3.729 1.17 3.95Zm-5.62-149.867c.49-.924 1.02-2.694 2.54-2.228.71.221-.01.924.14 1.177.25.403 1.52.221 1.57.766.05.703-.66.798-.63 1.462-.41.608-1.77 1.256-1.77 1.256-.08 1.208-.41 1.382-1.57 1.485-1.13.11-1.2-.079-1.2-1.035 0-.766-2.57.474-2.57-1.564 0-2.228 2.74.126 3.49-1.319Zm-14.53 7.441c.98-.735.38-2.212 1.86-2.457 2.76-.482.48 1.628 3.29 1.628.52 0 2.49-.459 2.54.173.09 1.485 2.11-.426 2.98.427.18.166-.24 1.359-.26 1.556 0 0 .01-.016.02-.016l-.02.032v-.016c-.72 1.146-2.11.474-2.06 1.754.03.861-.96 1.019-1.63.908-1.45-.253-2.76.751-4.06.111-.85-.427-1.19-.845-2.15-.766-1.85.142-1.97-.609-2.28-2.283-.22-1.193 1.06-.506 1.77-1.035v-.016ZM932.797 59.925c3.365-.608-.126-6.675.348-7.631.766-1.517 2.14.095 2.709-1.114.323-.719 1.129-1.532 1.8-1.596 1.548-.142 1.659 3.429 1.453 4.171h-.015c0 4.495.426 9.037.426 13.461 0 2.085.063 4.384-1.943 5.143-4.154 1.532-2.448-2.26-3.538-2.71-2.022-.814.182-1.517-2.353-1.517-.64 0 0-2.551 0-3.057 0-1.911-1.406-4.684 1.113-5.142v-.008ZM802.139 165.018c1.176-5.64 4.873 3.381 8.032-1.256.734-1.082 5.67-10.529 7.344-6.659.506 1.161 8.332-3.254 5 .427-.561.624.015 1.675-.142 2.085-.103.269-.743 1.138-.695 1.114v-.016.016c-1.035 3.002-2.883 5.64-4.992 8.034-1.627 1.848-6.658 3.886-8.458 2.085-.908-.908-2.385-2.772-3.744-2.772-2.44 0-2.851-.704-2.353-3.058h.008Zm17.185 34.987c-1.256 1.256-2.725 3.104-3.886 4.029-.284.221.687 1.706-1.658 2.772-1.437.656-2.914 2.354-3.199 2.362-1.658.079-3.806-1.406-4.572-2.227-.577-.609.671-3.697.545-3.745-1.912-.75-2.425.53-3.744-1.398-1.658-2.409-.474 1.943-3.459-.687-.829-.735-.45-.751-1.659-1.659-1.176-.893-1.255-2.741.83-2.631 3.775.19 3.917-5.166 4.43.546.221 2.346 5.56-1.422 5.971-2.086.624-1.035 2.551.972 3.743.972 1.374 0 2.227-1.019 3.886-.427 1.019.364.687 3.428 3.056 2.228 2.583-1.335-.481 1.659-.284 1.943v.008Zm-40.223-26.384c3.183 0-3.072 3.839 3.317 3.602 5.339-.19 4.06-1.051 3.602-4.029-.095-.639 5.607-6.738 6.657-7.362 2.07-1.224 1.398 2.899 2.915 3.887 1.579 1.019 3.072-1.241 3.885-1.399 1.896-.363 3.554 2.742 1.596 5.625l.015.016c-.639 1.287-.379 4.368-.687 4.368-4.636.142.285 3.839-.908 4.858-2.282 1.975-2.598 5.545-4.028 6.114-3.23 1.304-3.964 4.511-5.141 7.631-1.129 2.994-11.839-1.098-11.373-2.63 1.24-3.966-2.772-1.335-2.772-5.143 0-.719-1.208-.798-1.658-1.517a1.605 1.605 0 0 1 .142-1.943c2.33-2.836-2.914-1.287-3.601-4.858-.609-3.136 5.354-7.22 8.031-7.22h.008Zm-9.943 15.696c1.177 0 .987.719 1.517 1.398.252.316.781.506.829 1.177.031.506 1.658 0 1.658 1.864 0 .625-1.113.988-1.516 1.256-.442.269-1.114 1.738-1.114.546 0-.767.206-1.272-.544-1.659-.435-.221-2.63-.142-2.773-.83-.284-1.422.766-3.744 1.943-3.744v-.008Zm-133.683-4.25c2.504-2.915 4.825.206 5.828 2.362 1.533 3.334 10.023 2.947 6.034 8.942h-.016c-2.037 6.106-6.594 8.666-11.72 12.142-.513.347-4.588 6.035-5.749 1.801-1.287-4.637 4.225-7.963 4.225-13.595 0-3.073-.561-9.401 1.398-11.66v.008Zm-27.65-9.384c.877-2.275-4.059-2.884-4.714-3.887-1.975-3.025 2.74-4.7 4.288-6.943 1.145-1.643-3.68-3.46 2.085-7.631 2.274-1.659 5.497-4.558 7.203-.83 2.535 5.514.418.988 4.43 3.887 4.841 3.476-2.195 6.469-3.601 9.163-.877 1.659.331 1.659 1.943 1.659.845 0-1.611 2.338-1.517 2.362 3.854 1.209 5.386-3.334 8.459.142 2.756 3.12 2.353 8.429 2.353 11.107h-.016c0 1.864-1.469 3.618-.829 5.545 1.469 4.447 3.199 3.278-4.154 6.944-3.665 1.832-13.031-7.205-13.031-11.249 0-4.558-10.915-2.552-11.633-7.773-.861-6.217 8.142-.972 8.742-2.504l-.008.008Zm-180.753 84.61c10.717-5.198-6.547-12.189 9.146-12.189 2.772 0 13.552-5.016 10.804-9.977-.545-1.003 18.796-11.248 21.331-14.416 2.772-3.476 11.657-2.006 14.674-3.318 7.203-3.136 2.551-7.694 9.146-1.114 4.604 4.606 15.503-3.428 17.445-3.886 19.8-4.558 4.107 19.393-1.658 19.393l-.016.016c-12.075 0-36.653.908-44.314 8.586-7.218 7.22-24.932 14.401-24.932 24.939 0 7.046-5.213 7.172-1.943 13.563 2.693 5.277 1.034 10.672-4.984 9.977-1.548-.174-21.07-17.734-16.901-17.734 10.639 0 10.228 2.196 1.114-6.928-7.984-7.986 9.509-6.154 11.073-6.928l.015.016Zm-49.028 34.655c.576-1.051 1.706-2.212 2.085-3.334.426-1.287 2.037-1.287 2.709-2.006 2.195-2.425 2.227-4.305 6.168-4.305 1.445 0 .908 3.009 1.255 3.886.411 1.067 2.694 1.785 3.396 2.567 3.475 3.855-3.553 10.451-7.408 8.255h-.031c-1.785-1.019-11.025.079-8.174-5.063Zm-291.423 3.025c.735-1.911 5.544-1.595 7.06-.687 1.865 1.098 4.17-4.06 4.716.348.157 1.208-.427 3.823 1.397 2.488 2.867-2.086 4.715-2.275 4.779.624l-.016.016c-1.754 3.997 3.933 3.618 3.317 6.169-.458 1.975-1.517 2.101-1.517 4.574 0 4.305-3.317 7.125-7.486 6.517-3.665-.529-2.022-6.051-2.63-6.517-1.517-1.193-3.35-2.552-4.636-3.966-1.754-1.911-.474-3.76-1.659-5.34-.86-1.145-4.075-2.298-3.317-4.226h-.008Zm-9.09 205.645-6.816-2.938-10.938-10.72-8.419 1.549-2.18-6.983 4.242-5.799-1.785-10.372 1.319-2.82 13.97 7.181 2.962-2.67 4.115 2.638-3.349 15.475 10.228 10.443-3.341 5.016h-.008Zm1024.959 3.421c-1.62 2.022-8.63-1.833-12.47.829-1.62 1.13 10.36 14.29-1.51 9.993-3.28-1.177-13.81-17.703-14.56-21.368-1.14-5.624-12.12.127-12.75-7.504-.41-4.906.94-4.89-4.85-11.107-4.86-6.485-8.03-13.445-17.06-18.737l-9.7-5.688c-1.77-1.035-.99-4.416-3.05-5.83-1.59-1.098-9.36-12.346-9.01-12.623.59-.458 3.92-.513 3.06-1.114-.32-.221 0-3.697 0-6.39 0-3.681 8.2 1.943 9.84 3.333 3.77 3.231 6.54 7.805 9.29 9.993 3.5 2.789 11.24 9.653 14 12.765 6.07 6.881 19.7 8.943 27.72 13.88 1.47.908 6.94 6.39 2.91 6.39-7.48 0-13.58-11.296-13.58 4.716l-.02-.016c.97 1.114-.84 3.682 1.1 5.972 1.93 2.291 3.89 1.335 3.89 5.419 0 6.391 8.87 8.05 13.58 8.05 1.69 0 15.12 6.564 13.17 9.021v.016Zm-86.4-81.135c-.49 0-1.25-.3-1.46.063-.78 1.406-3-.095-3.19-1.114-.14-.782 0-2.361 0-3.199 0-2.599 4.12-2.52 4.37-.624.09.672 1.03-.079 1.32.206.27.268.2 1.05.14 1.658v.032c0 1.769 1.77 2.978-1.18 2.978Zm117.33-50.398c2.69-12.781-6.21-1.627-8.03-10.246-.45-2.196 10.83-3.041 2.77-8.033-4.24-2.631-11.59-3.571-16.07-5.261-4.65-1.754-47.65-36.614-47.65-38.51 0-12.987-8.63-10.719-11.07-17.734-1.99-5.719 4.78-18.263.55-24.378-2.11-2.409-13.41-30.112-13.07-31.408 1.96-7.362-.83-15.617-5.26-19.566-3.5-3.121-13.49-11.763-9.71-16.51 3.59-4.495-9.38-3.507-7.89 3.602 1.47 7.046 12.87 7.425 9.29 19.993-1.23 4.306.33 10.996 2.77 13.192 3.69 3.326-2.38 9.961-6.66 6.66-2.5-1.928-3.68-9.085-4.71-9.993-4.36-3.824-2.3 5.213-2.78 5.277-11.51 1.595-8.61 37.988-2.21 46.093 7.98 10.071 2.12.347 10.81-1.256 7.21-1.32-2.88 11.967-4.17 12.22.35 3.381-5.74 29.062-10.94 17.078-.91-2.101 3.02-7.062-1.52-4.858-2.53 1.241-3.47 4.045-6.66 4.448-18.073 2.322 4.17 8.76-5.682 15.964-3.807 2.789-6.626 5.704-10.67 8.192-1.232.751 1.785 1.833 2.496 2.631.892 1.003-4.47 3.918-5.268 4.716-7.7 6.106-16.569 6.517-15.803 16.509.079 1.019-2.164 2.41-2.63 3.745-1.674 4.779 1.003 8.081.142 12.765-.86 4.748 3.333 8.523 1.114 13.879-2.575 6.185-1.398 3.152-1.398 9.993.64 11.454-.971 21.06-.971 31.1 0 4.463-13.671 24.614 1.524 21.794 2.424-.458 8.016-5.861 9.706-4.17 1.208 1.192 1.58.158 2.085 2.63 1.098 5.419 3.443 5.956 3.744-.687.3-6.58 11.641 17.75 11.641.545 0-9.464-7.495-11.296 4.43-16.384 9.1-3.886 4.94.143 12.89-.284 4.04-.205 6.45.427 9.83.427 1.79 5.071-8.24 6.185 0 9.021 9.87 3.381 8.25 13.05 13.32 17.22 4.84 3.998 3.74 3.713 3.74 9.448 0 8.302 23.67 20.223 18.58 27.624-.28.403 2.63 6.47 2.63 8.334 0 4.716-2.68 14.18 1.39 15.538 1.88 8.366 4.61 20.081 3.32 30.674-1.48 12.252-1.04 28.137.14 40.674.14 1.453-7.74 22.165-8.46 22.766-3.45 2.883-10.13 4.06-14 .284-4.05-3.965-3.71 6.359-4.14 6.802.59 3.27-.83 3.949-.83 6.517 0 4.091.83-.143-1.95 2.63-1.09 1.098-.45 3.839-.55 3.887-3.17 1.271-5.34-3.745-7.34-5.688-1.09-1.035 2.75-4.013 3.32-6.106 2.11-7.971-7.68-17.308-13.73-20.681-7.58-4.218 2.87-16.51 9.16-16.51 9 0 3.47-6.106 2.49-11.106-1.85-8.334-5.83-17.671-5.83-25.539v-8.879c0-16.952-6.12-5.34-13.72 4.716-2.58 3.413-8.443 5.624-8.743 9.851-1.39 19.851-12.779 3.681-17.043-1.256-1.09-1.288-7.187-.38-8.862-.143-1.034.158-2.037-3.586-5.686-2.63l-5.828 1.517c-6.887 1.145-9.944 8.792-15.804 2.915-5.544-5.546-10.804-15.507-17.746-20.681-5.97-4.432-19.925-15.775-26.749-12.766-9.54 4.187-18.78.064-25.375 7.773-12.265 7.378-7.661 3.476-8.04 11.391-.11 2.331-5.962 4.969-5.962 7.363 0 3.104 20.36-1.304 10.661 5.419-1.082.75-1.927 10.561-2.772 13.594-1.358 4.922 1.69 5.925-1.943 9.164-4.383 3.902 13.253 7.615 2.638 11.794-1.145.458.071 2.741-.553 4.17-3.103 7.047-12.652 14.93-21.062 7.221-1.541-1.414-6.405 4.684-11.642 2.772-6.72-2.457-10.417 1.754-13.441 2.086-2.693 4.028-3.088 9.131-6.097 12.362-7.377 7.884-28.116 22.624-39.22 16.376-2.196-1.241-13.379-4.922-13.315-5.277.497-2.899-12.107-4.029-13.719-4.029-4.201 2.362-8.569 3.902-12.059 7.22-2.259 2.133-16.183 3.215-18.433.687-1.422-1.595 1.642-8.46-1.517-11.936-5.639-6.201-13.268-1.256-19.404-1.256-6.137 0-3.167-4.7-9.841-3.057-2.74.688-2.914-3.183-5.686-2.488-8.774 2.504-7.534 3.634-8.6 10.688-.861 5.751 7.107 6.296 4.169 13.334-3.869 9.242-4.635 9.163-14.973 9.163-5.987 0-24.009 2.473-27.303-3.886-2.298-4.447 1.801-7.773-5.402-9.851-7.55-2.196-8.221 3.713-12.612 4.432-2.898 1.422-14.224 5.94-15.385 7.504-.908 1.256.909 3.35-1.374 4.859-6.405 4.234-21.284 4.281-24.806 9.163-3.523 4.89-6.863-.893-7.345-5.972-.363-3.729-6.152 1.485-7.345 1.659-10.243 1.501-18.812-31.693-28.273-22.213-3.823-.703-19.689 1.88-19.689-4.163 0-9.432-4.336-.064-6.516.829-8.742 3.555-5.354-12.283-6.515-15.538l-9.699-27.213c-2.179-6.13-10.243-15.167-16.49-11.936-7.155 3.696-6.049 9.431-16.49 3.602-4.289-2.402.205-8.476-4.154-9.574-4.028-.111-18.062.221-16.356-7.505.331-1.453 2.022-2.725 2.772-4.029 3.254-5.703-15.709-21.336-18.299-20.538-7.108 2.196-16.569 10.135-24.119 10.135-5.513 0-6.342-2.038-6.658-5.688-.047-.671-6.61 2.212-8.032 2.086-6.5-.593-28.597-9.053-29.663-3.887-1.533 7.457 8.332 11.186.687 12.079-2.18.252-7.456-1.114-10.67-1.114-3.601 6.691 3.23 7.22-8.032 7.22-8.853 0-.095 13.705 2.346 14.566 7.566 2.662-.83 7.102-4.431 8.334-5.244 1.817-8.142-5.261-9.572-5.142-23.116 1.974-3.23-13.05-19.546-13.05-9.651 0-3.009-5.293-14.414-3.744-2.803.379-8.316 1.453-8.742-3.334-.687-7.789-11.839-12.655-10.117-16.936 1.208-2.963-4.778-9.717-7.203-9.717-2.243-.268-3.728-1.192-5.828-1.943-1.738-.624-3.586-.363-2.63-2.085.971-1.77.11-1.13-1.114-2.086-1.098-.845-3.072-1.098-4.272-.411-7.693 4.448-20.676-7.299-20.676 6.976 0 3.381-7.882 6.706-8.806 3.697-.427-1.351.592-9.685.387-10.783-2.362-12.971-9.256 9.037-22.99 15.901-6.468 3.231 4.367 16.684 5.339 25.018 1.145 9.684.142 19.235-5.308 22.979-3.98 2.741-13.189-2.725-18.109-2.07-9.398 1.288-13.813 7.3-10.962 11.81 2.598 4.108-17.983 17.481-10.543 29.394 4.478 7.172-2.441 18.737-9.272 18.911-5.923.142-7.598-8.729-9.73-18.24-1.24-5.514-5.749-9.321-3.183-16.762.766-2.228-7.692-5.309-15.037-13.753-4.336-5.001-5.939-15.728-10.756-22.292-3.965-5.388-9.209-6.517-13.031-11.92-5.079-7.189-4.763-18.611-7.266-26.724-2.52-8.113-6.958-12.718-6.018-19.583.063-.513.624-5.198 3.364-5.782 3.412-.719 3.396 7.22 8.316 6.533 2.306-.316 1.335-3.745 4.076-5.435 1.911-1.161 5.481 3.95 7.708 2.741 1.287-.703-1.303-8.065-.127-9.353.482-.513 1.114-1.374 2.994-.387 1.066.561 3.49 3.318 7.123 4.558 3.199 1.098 7.787.924 6.879-1.88-.877-2.71-10.085-3.089-9.975-3.902.316-2.323 3.333-6.533 7.969-6.407 4.138.111 9.73 5.261 13.41 6.343 3.791 1.098 5.592-1.911 4.257-3.618-2.693-3.444 3.278-3.286 5.749-4.952 4.399-2.947 6.769-4.203 6.034-10.151-.189-1.533-.442-5.151-2.116-6.738-1.706-1.612-4.842-1.209-6.263-3.555-1.58-2.615-.75-11.502-2.196-14.432-1.532-3.105-5.338-.269-6.357-3.326-1.927-5.751-5.829-8.831-4.154-12.299.56-1.162 2.472-1.722 3.554-5.293.623-2.117-3.965-7.236-3.523-9.866.656-3.934 6.018-6.138 7.503-8.974 1.485-2.836-.892-6.296-1.58-7.473-5.03-8.665-21.663-2.18-7.202-18.864 6.958-8.033 10.085 3.318 11.641-1.113 3.04-8.698 2.488-15.088 4.667-21.684 1.256-3.808 9.019-6.375 10.212-10.135 1.627-5.182-6.421-5.672-5.465-17 1.24-9.321 13.047-30.27 22.856-32.522 5.03-1.161 10.867-13.737 19.104-8.586 9.446 5.909 9.066-25.381 21.6-12.189 2.338 2.457 20.36-.545 23.685-1.098 4.825-.798 2.085-13.911 7.037-18.516 2.851-2.646 5.212-5.672 7.329-8.832 3.996-5.956 3.254-.505 6.231-2.772.363-.285 12.502-13.895 12.889-14.993 3.775-10.467 4.604-11.281 14.69-13.603 1.176-.269 2.053-13.879 4.43-13.879 6.089-5.277 4.178-7.126 12.202-9.717 2.993-.971 7.376 3.697 10.67 4.171 2.598.379 12.841 5.53 14.413 6.802 2.069 1.674-2.196 5.15-3.459 5.687-3.302 1.383-3.949-1.769-5.402 1.659-.561 1.351 4.888 1.643.284 3.057-3.933 1.209 4.241 4.029 6.089 4.029 1.848 0 5.813.75 3.459 3.333-.718.798 6.231 16.076 6.231 19.851.925 3.919 3.728 14.275 2.488 18.193-1.177 3.744 1.398 9.29-.545 11.391-7.376 7.954-16.087 7.473-24.814 2.488-5.055-2.883-9.754-14.053-11.373-19.298-1.224-3.981-1.674-9.716-4.43-12.766-5.047-5.561-6.034 8.555-3.886 11.66 1.674 2.425-4.43 6.067-4.999 7.773-1.358 3.902-8.601 8.602-8.601 11.391 0 7.852.877 12.062 1.659 20.396.64 6.991 14.145-2.678 5.402-7.504-4.123-2.275 1.129-12.284 6.926-7.086 6.01 5.387.411 15.435 9.572 17.766 8.206 2.101-5.015-21.7 14.003-13.192 3.04 1.358 7.344 9.353 11.775.829 2.44-4.7 16.348 16.557 16.917 1.114.094-2.473-4.699-5.94.624-7.986 3.253-1.256 6.231-4.637 7.423-6.881 2.117-3.997.458-8.902 3.396-7.836 2.709.987 4.921 3.507 7.93 5.703 3.009 2.196 6.847 4.045 4.477 6.739-6.199 7.085-4.841 8.223-13.718 12.631-3.98 1.975-3.506 12.078 1.256 13.05 6.168 1.256 7.613-12.892 16.356-8.05 1.05.577 10.338-13.018 12.344-6.106 3.759 13.002 30.919-7.046 18.986 12.489-4.699 7.71 9.13-.206 9.572-.285 2.867-.529 5.812 10.135 13.584 5.277 1.99-1.24 6.752 1.501 7.89 3.476 2.598 4.495-8.317 3.46-8.317 5.419 0 9.606 11.278-2.804 14.556-1.114.529.285.829-8.302-.143-10.822-1.129-2.915 3.665-2.164 1.256-4.858-9.24-10.325-5.923-14.661-.782-11.707 1.319.766 2.488 5.229 3.902 6.391 1.224 1.003 3.475 2.899 3.396 3.728-.095 1.051-1.596 1.375-1.596 2.567 0 .83 5.466 4.369 6.374 4.937 2.306 1.407 1.113 1.754 2.148 3.255.734 1.066 4.857 1.548 6.452 2.852 1.335 1.066 2.291 2.425 3.744 3.254 5.031 3.982 4.715 6.051 4.92 11.249.284 7.536 15.021 13.034 12.06 1.801-1.13-4.289-3.349-9.305-6.231-11.517-6.595-5.095 3.601-7.126 3.601-11.107 0-3.744 4.075-4.558 1.256-8.879-6.184-9.463 12.731-8.318 13.173-16.652.174-3.041 3.696-2.52 4.857-5.972.513-1.516-.363-4.763.426-5.545 1.754-1.754 4.336.482 5.402-2.085 3.839-9.195 14.721-3.887 9.714 2.772-.545.735-7.439 3.136-2.227 3.342 7.503.284 3.057 6.059 3.057 10.135-1.209 10.087-10.757 7.883-5.971 17.481 3.901 7.82-4.573 16.873-6.658 25.539-1.848 7.662 4.107 16.233 2.085 20.27-2.977 5.829-15.021 26.929-20.928 21.51-11.436-10.514-2.038 4.384 2.487 6.248 9.083 3.744 11.839-9.021 20.929-9.021 9.09 0-4.123-29.923 13.315-23.453 3.412 1.271 4.415 6.201 5.126 9.021 1.161 4.668 5.26-4.621 3.317-7.22-3.601-4.811-5.639-2.884-7.203-8.603-.126-.458-6.642.909-8.031.285-8.159-3.634-.893-17.308 1.942-25.128.956-2.647-2.63-9.116-2.63-12.908 0-5.751 6.263-4.321 9.146-5.277 6.247-2.362 3.822-4.51 2.488-8.049-.83-2.212 2.337-2.117 2.487-3.887.348-3.633-5.639-3.341-4.154-7.915 2.377-7.331 6.5 2.086 8.459 7.978.924 2.805 1.208 3.492-.127 6.186-.782 1.595-1.8 3.294-2.243 3.602-.876.592-1.816 2.946.142 2.488 3.618-.829 1.864-3.136 4.028 1.398 3.428 7.173 10.575-13.705 16.356-3.057 1.959 3.618 11.657 9.716 10.259 11.533-3.838 4.985 1.517 9.179 1.517 11.66 0 1.785-.285 4.937-1.517 7.362-2.772 5.435 3.325 1.067 4.431-1.943 1.066-2.883-.766-5.095-.142-8.334.971-5.095-1.398-3.792.829-9.021 1.287-3.01-6.452-9.179-8.316-10.964-.972-.925-3.87-2.347-4.028-3.887-.221-2.054 3.254-2.18 3.601-3.057.672-1.722-5.141-11.47-3.601-13.461 2.819-3.665 13.876-2.227 18.575-2.227 2.338.521 19.049 1.366 12.123-5.34-3.586-3.476.284-5.182-.545-7.773-1.564-4.858 9.003-7.647 11.436-10.822 2.898-3.808 4.731-6.739 10.322-6.739 8.83 1.272 6.674-5.877 13.513-9.447 6.31-3.302 4.667-4.653 5.125 2.915.332 5.403 6.405-4.953 8.174-4.574 7.045 1.485 1.564-1.051-.687-3.602-1.318-1.501 6.863-.048 7.203-2.228.94-5.893-.561-13.239 4.431-15.135 5.591-2.117.189-7.078 7.771-7.078 3.506 0 9.193 1.319 4.288 5-.718.537-.252 4.716.83 4.716 2.353 0 6.578-1.003 6.942 2.489.189 1.785-.972 1.39-.972 2.914 0 1.32.972 1.019 1.69.506.751-.545.94-.687 1.864-1.003 7.408-2.552 14.224-11.683 18.204 1.05 1.019 3.255 3.522.348 4.028 5.419.3 3.136 5.939 2.789 7.203 6.66 2.021 6.185-7.914 11.485-6.8 15.68.458 1.706-1.896 5.766-2.772 6.801-2.227 2.631-1.801 4.29-3.215 6.486-1.658 2.567-4.225 6.374-5.512 7.393-2.18 1.723-1.801 5.625-3.057 8.192-5.094 10.451 8.095-.174 10.947-4.029 5.03-6.769-.672-8.223 1.8-11.39 5.813-7.458 6.934 1.69 12.889-1.944 2.962-1.801 7.85-1.785 10.757-1.627 3.712.19 2.487-1.461 5.654-3.215 4.431-2.457 11.057-1.975 8.956 1.643-2.851 4.937 17.557-1.659 19.547-2.228 3.917-1.129 2.709-8.539.971-10.277-4.794-4.795-1.469-2.291.269-3.167 1.461-.751 1.319-1.256 3.491-1.833 8.758-2.338 22.697-10.088 22.697.814 0 2.614 7.069 4.637 8.601 6.659 2.18 2.851-3.199 4.779.545 6.375 1.113.474 18.141 13.207 19.468 5.987.173-.892.063-1.287-.459-2.038-2.55-3.712-13.031-14.582-5.141-14.914 5.141-.205 6.05 6.106 8.601 3.476 2.819-2.915 4.699-11.265 9.224-6.928 1.066 1.035 1.066.94 2.709.545 2.535-.592 6.484-2.038 5.11-4.044-.782-1.13-7.25-4.029-.545-4.716 9.114-.94 1.8-4.953 1.8-9.306 0-5.261-3.522-.892-5.528 1.019-.892.846-1.287 1.098-2.037-.047-.814-1.224-1.612-3.428-1.304-4.029 1.801-3.396 9.241-3.412 5.545-6.517-6.5-5.435 1.848-8.191 9.24-11.059 3.538-1.367 6.784-3.807 8.221-4.621 4.052-2.291-.703 5.063-.142 5.277 1.161.458 2.377-2.244 3.056-2.773 1.098-.861 4.573 10.98 5.687-1.398.094-1.114-4.17-6.359-.972-8.879 1.501-1.193 12.218-4.906 13.174-3.476 1.342 2.038-.924 2.899.276 3.887.798.655 16.151-3.271 19.27-3.887 2.583-.513 6.2-8.634 6.918-11.249.585-2.085-2.487-7.63 2.773-7.63 1.619 0 3.214-2.631 4.557-4.029 2.163-2.228 11.262-3.555 13.884-2.362 3.317 1.501 4.88 3.041 7.155 3.428 1.706.301 4.028-.426 6.642-.237 1.627.111 2.282-1.374 3.538.545.766 1.146 4.217 8.271 6.452 3.46 3.278-7.062-7.858-7.251-5.828-13.192.845-2.472-.032-3.57 2.432-5.624 1.801-1.485 3.775-1.517 5.481-3.46.798-.908-.284-2.694.766-3.823 3.246-3.523 3.12-3.776 3.12-8.334-1.445-6.486-3.602-9.258 4.225-7.426.987.237 1.445 5.293 3.262.972.308-.766 3.254-1.161 5.291-1.864 2.022-.703 3.151-1.722 3.996-2.086 2.314-.987 5.655-3.697 1.454-5.482-2.93-1.24-7.203.988-11.026.624-2.503-.237-4.888-6.003-3.885-8.255.537-1.224 1.603-2.338 1.864-3.396.379-1.446 2.63-2.868 2.63-3.603 2.258-5.15 13.631-29.575 19.27-30.128 3.617-.347 32.08-20.933 33.96-24.71 2.922-5.892 15.816-.047 19.946-.426 4.54-.41.32-7.378-3.74-6.801-8.03 1.145-4 .363-3.32-3.057 0-12.781.71-6.17 10.54-13.88 4.58-3.57 9.44-3.57 12.89 1.399 3.64 5.245-6.45 8.08-2.91 9.85 1.77.877-.14 2.552.69 2.63 2.6.27 3.98-2.614 6.34-2.306 1.32.174 3.01 2.054 4.62 2.852 2.35 1.161 4.76 1.35 7.46 1.548 6.56.498-.16 8.958-1.52 10.965-1.98 2.93-8.24 6.327-10.81 8.602-2.3 2.038.17 3.87-5.68 2.228-5.02-1.407-3.79 5.324-3.47 8.191.43 3.697-10.02 4.092-12.6 5.546-8.62 4.874 17.04 7.283 14.69 10.822 1.17 3.665 3.88 1.927 2.14 6.311-.66 1.644-2.24 3.555-1.25 5.277.62 1.098-8.71 7.394-6.31 9.511 6.98 6.154 8.94-8.034 12.95-9.084 3.85-1.003 8.1 4.044 12.55 2.362l.03-.063c7.76-2.931 26.16-.846 12.06 10.34-4.54 3.602-10.34 9.85-4.3 14.993 1.32 1.114 5.26 5.498 3.89 6.944-7.47 7.852 1.66 3.041 2.23 10.964.11 1.517-2.32 3.278-.29 4.574.88.56 2.21 4.573 2.49 5.687-.51 6.707 5.49 7.023 4.57 9.851-3.76 11.659 18.7 12.046.84 19.993-5.92 2.631-11.8.553-9.43 9.306.7 2.614 2.17 5.403 3.89 7.504.95 1.177.26 9.163-.84 9.163-5.74 0-3.86-2.275-6.23-5-.53-.608-2.82 4.234-1.12 5.83 5.36 5.016-.45 9.076-.68 9.424v.023-.023c.19-.695-2.34.892-2.49 1.279-.54 1.288 5.92 11.107 6.92 13.192 2.94 6.083 8.47 16.652 15.67 16.652 5.91 0-.03-4.242-.43-6.659-.36-2.212 5.8-4.305 6.52-1.516.95 3.681 3.79 6.438 4.02 8.049.64 4.187 6.95 2.362 10.54 2.488 11.14.395.76 6.13 1.81 8.334 2.11 4.432-1.1 2.899-.55 4.171.55 1.256 3.88 2.646 3.88 3.744.81 6.549 16.23 3.366 11.37 10.135-.92 1.288 1.87 1.225.97 2.228-1.19 1.335-7.47 7.678-5.54 9.858 1.75 1.975 6.52 5.988 7.2 8.461 1.44 5.182 11.09 3.776 11.09 5.972 0 4.139-12.39 1.753-5.54 8.744 4.01 4.092-2.52 8.318 6.92 13.05 2.1 1.051 1.14 2.567 2.22 4.432.67 1.161 4.7 2.117 5.96 3.057.19 7.283-3.64 20.104.09 25.941 4.61 7.205-4.74 19.133-2.49 8.318l.02.04Zm-151.318 68.022.016.015c1.271.609-1.501 2.054-1.738 2.347-.56.782-1.271 1.113-2.566 1.113-1.019 0-3.586.877-3.744-.347-.142-1.019-1.019-1.225-1.801-1.738-1.034-.687-1.05-2.101-.631-3.199.221-.545 1.556-.364 2.085-.545 1.706-.624 1.271-2.599 2.566-3.539 2.101-1.517 1.13 1.192 2.978 1.516 2.74.506-1.548 2.244 2.835 4.369v.008Zm89.988-207.454c-.67 1.366-.71 2.567-.21 3.886.37.956.68 3.871-.62 4.029-3.04.379-1.9-2.789-2.98-3.334-.45-.221-.67-1.161-.91-1.177-.38-.031-2.22.111-1.66-.766.91-1.446-.82-1.367-.9-2.646-.07-1.019.65-2.007.83-3.057.26-1.564-.55-3.381 1.51-2.852 1.34.347 1.16 2.291 1.8 2.291 2.09 0 1.73 1.975 2.09 2.022 1.91.221 1.25.561 1.03 1.596l.02.015v-.007Zm75.25 269.259c-4.44.592-2.06 4.795-2.06 7.251v.016c0 .75 1.41 2.117 1.6 3.199.17 1.082.17 2.362.2 3.46.04.83.99 2.425.07 2.425-3.15 0-2.36-3.025-3.81-2.915-.52.048-2.82.301-2.15-.908.69-1.24.37-1.351-.76-1.659-.93-.253.62-6.09-1.18-7.567-2.19-1.786-3.43-3.603.43-5.419.52-.253 1.26-.064 1.94-.064.56 0 .53-1.848 2.34-1.114.71.285 5.85 2.963 3.38 3.287v.008Zm4.66-21.874c-.6.877-1.6 1.754-1.6 2.631-.77 2.82-5.26 3.918-2.91 5.687 4.53 3.397 1.46 2.836 1.46 7.086 0 2.551-2.52 3.381-2.77.348-.21-2.489-1.66-2.054-1.66-4.171 0-.861-3.84-.988-2.92-4.922.41-1.738.42-3.665 1.12-5.34.78-1.911-5.38-3.396-.49-6.106.87-.482 1.81-.253 2.91-1.177.17-.142 3.79-4.953 3.95-2.425.16 2.567.8 1.256 2.63 2.006 1.33.545.08 2.505-.35 3.2-1.32 2.164 1.69 1.611.63 3.191v-.008Zm1.39-17.718c-.68-.285-1.16 1.272-2 1.319-2.51.142-.97-4.4-2.57-5.419-2.9-1.817-.2-3.057-.2-5.064 0-2.314-.6-3.041 2.22-4.17 4.64-1.865 2.73 1.816 3.4 2.148 1.41.703 1.35 1.272.49 2.425l-.02.016c0 2.52-.5 4.187.48 6.659.53 1.288.24 2.915-1.8 2.086Zm4.59-31.629-.01-.016c-.49 1.422-2.49 1.445-2.63 2.567-.15 1.067-1.55.411-2.15-.142-1.47-1.351.08-2.615-.97-4.092-.74-1.051-3.19-2.946-3.19-4.092 0-1.367 2.33-1.051 3.05-.545 1.69 1.193.45 2.804 2.08 2.425.41-.095.21 1.454 1.27 1.596 2.62.347 2.62 2.117 2.55 2.291v.008Z" fill="#fff"/></g><defs><filter id="a" x="-26.471" y="-22.941" width="1253.82" height="741.177" filterUnits="userSpaceOnUse" color-interpolation-filters="sRGB"><feFlood flood-opacity="0" result="BackgroundImageFix"/><feColorMatrix in="SourceAlpha" values="0 0 0 0 0 0 0 0 0 0 0 0 0 0 0 0 0 0 127 0" result="hardAlpha"/><feOffset dy="3.529"/><feGaussianBlur stdDeviation="13.235"/><feComposite in2="hardAlpha" operator="out"/><feColorMatrix values="0 0 0 0 0 0 0 0 0 0 0 0 0 0 0 0 0 0 0.15 0"/><feBlend in2="BackgroundImageFix" result="effect1_dropShadow_1717_19895"/><feBlend in="SourceGraphic" in2="effect1_dropShadow_1717_19895" result="shape"/></filter></defs></svg>