<svg width="32" height="32" fill="none" xmlns="http://www.w3.org/2000/svg"><path clip-rule="evenodd" d="M5.119 13.143c-.796-.772-.358-2.121.74-2.277l5.42-.771a1.333 1.333 0 0 0 1.006-.728l2.427-4.893c.49-.987 1.897-.988 2.388-.002l2.448 4.918c.195.39.569.662 1 .725l5.445.798c1.094.16 1.529 1.508.734 2.277l-3.911 3.787a1.333 1.333 0 0 0-.386 1.188l.938 5.363c.19 1.09-.953 1.924-1.932 1.41l-4.874-2.554a1.333 1.333 0 0 0-1.235-.001l-4.872 2.54c-.977.509-2.115-.32-1.93-1.405l.912-5.385a1.333 1.333 0 0 0-.387-1.18l-3.931-3.81Z" stroke="#fff" stroke-width="2" stroke-linecap="round" stroke-linejoin="round"/></svg>